<svg width="30" height="42" viewBox="0 0 30 42" fill="none" xmlns="http://www.w3.org/2000/svg">
<path d="M23.4 17C23.4 17 23 19 17 27C11.2 34.6 19.6 40.2 20.6 41H20.8C22 40 37.2 30.4 23.4 17Z" fill="#FF5151" fill-opacity="0.3" stroke="#FF5151" stroke-width="1.5" strokeMiterlimit="10" strokeLinecap="round" strokeLinejoin="round"/>
<path d="M18.6 12.6C18.6 8.00001 16.8 3.80001 15 1.40001C14.4 0.800014 13.4 1.00001 13.2 1.80001C12.4 4.80001 10 11.2 4.2 18.8C-3.2 28.4 3.6 38.8 10.6 40.8C14.4 41.8 9.6 38.8 9 32.6C8.4 24.8 18.6 19 18.6 12.6Z" fill="#FF5151" fill-opacity="0.3" stroke="#FF5151" stroke-width="1.5" strokeMiterlimit="10" strokeLinecap="round" strokeLinejoin="round"/>
</svg>
